<svg width="24" height="24" viewBox="0 0 24 24" fill="none" xmlns="http://www.w3.org/2000/svg">
<path fill-rule="evenodd" clip-rule="evenodd" d="M8 5H16V19H8V5ZM18 3H16H8H6V5V19V21H8H16H18V19V5V3ZM11 8.99805H13V6.99805H11V8.99805ZM11 12.998H13V10.998H11V12.998ZM11 16.998H13V14.998H11V16.998Z" fill="#121212"/>
<path fill-rule="evenodd" clip-rule="evenodd" d="M20 9H18V7H20H22V9L21.9999 19V21H18V19H20L20 9Z" fill="black"/>
<path fill-rule="evenodd" clip-rule="evenodd" d="M6 9H4V19H6V21H4H2V19V9V7H4H6V9Z" fill="black"/>
</svg>
