<svg viewBox="0 0 174 48" fill="none" xmlns="http://www.w3.org/2000/svg">
<path fill-rule="evenodd" clip-rule="evenodd" d="M81.5291 10.4105C81.5291 11.8929 80.3219 13.0945 78.8328 13.0945C77.3437 13.0945 76.1365 11.8929 76.1365 10.4105C76.1365 8.92822 77.3437 7.72656 78.8328 7.72656C80.3219 7.72656 81.5291 8.92822 81.5291 10.4105ZM111.803 31.3971V32.4126H107.202V23.3498V8.6705H111.803V15.3025C113.208 14.4708 114.848 13.9932 116.601 13.9932C121.792 13.9932 126.001 18.1823 126.001 23.3498C126.001 28.5173 121.792 32.7064 116.601 32.7064C114.848 32.7064 113.208 32.2288 111.803 31.3971ZM121.296 23.3495C121.296 26.0598 119.089 28.2568 116.367 28.2568C113.644 28.2568 111.437 26.0598 111.437 23.3495C111.437 20.6393 113.644 18.4422 116.367 18.4422C119.089 18.4422 121.296 20.6393 121.296 23.3495ZM61.36 8.67341V12.5094H54.8245V32.4123H50.0355V12.5094H43.5V8.67341H61.36ZM66.5008 17.1004C67.0924 16.1408 67.8593 15.3883 68.8014 14.8431C69.7655 14.2978 71.424 14.0252 72.651 14.0252V18.8344H70.8719C69.4258 18.8344 68.3303 19.1724 67.5854 19.8485C66.8623 20.5247 66.5008 21.7024 66.5008 23.3818V32.4113H61.8997V14.2869H66.5008V17.1004ZM81.3439 32.4115V14.2872H76.2922V32.4115H81.3439ZM134.552 18.0509V26.8187C134.552 27.4293 134.694 27.8765 134.979 28.16C135.286 28.4217 135.79 28.5526 136.491 28.5526H138.627V32.413H135.735C131.857 32.413 129.918 30.5373 129.918 26.7859V18.0509H127.749V14.2886H129.918V10.274H134.552V14.2886H138.627V18.0509H134.552ZM174 28.648H165.905L174 17.9828V14.2859H160.663V18.0482H168.659L160.63 28.7134V32.4103H174V28.648ZM149.897 32.7052C155.088 32.7052 159.296 28.5161 159.296 23.3485C159.296 18.181 155.088 13.9919 149.897 13.9919C144.706 13.9919 140.497 18.181 140.497 23.3485C140.497 28.5161 144.706 32.7052 149.897 32.7052ZM149.897 28.2572C152.619 28.2572 154.826 26.0601 154.826 23.3499C154.826 20.6397 152.619 18.4426 149.897 18.4426C147.174 18.4426 144.967 20.6397 144.967 23.3499C144.967 26.0601 147.174 28.2572 149.897 28.2572ZM95.2689 32.7052C100.46 32.7052 104.668 28.5161 104.668 23.3485C104.668 18.181 100.46 13.9919 95.2689 13.9919C93.516 13.9919 91.8751 14.4696 90.4705 15.3012V14.2863H85.8694V23.3485V37.9102H90.4705V31.3958C91.8751 32.2275 93.516 32.7052 95.2689 32.7052ZM99.9635 23.3499C99.9635 26.0601 97.7564 28.2572 95.0337 28.2572C92.3111 28.2572 90.1039 26.0601 90.1039 23.3499C90.1039 20.6397 92.3111 18.4426 95.0337 18.4426C97.7564 18.4426 99.9635 20.6397 99.9635 23.3499Z" fill="#121013"/>
<path d="M38.852 31.7548L18.4698 18.4558C18.1626 18.2554 17.7549 18.4751 17.7549 18.8411V45.439C17.7549 45.8051 18.1626 46.0248 18.4698 45.8243L38.852 32.5254C39.1307 32.3436 39.1307 31.9366 38.852 31.7548Z" fill="white"/>
<path d="M38.852 31.7548L18.4698 18.4558C18.1626 18.2554 17.7549 18.4751 17.7549 18.8411V45.439C17.7549 45.8051 18.1626 46.0248 18.4698 45.8243L38.852 32.5254C39.1307 32.3436 39.1307 31.9366 38.852 31.7548Z" fill="url(#paint0_radial_5617_143436)"/>
<path d="M4.94776 32.1402V17.6386L19.4996 8.01464L28.8 14.2042V25.196L33.7347 28.4158V11.6935L19.5008 2.40039L0 15.1267V37.0228H17.7551V32.1402H4.94776Z" fill="#121013"/>
<defs>
<radialGradient id="paint0_radial_5617_143436" cx="0" cy="0" r="1" gradientUnits="userSpaceOnUse" gradientTransform="translate(13.169 45.9003) rotate(-24.795) scale(32.8113 42.3813)">
<stop stop-color="#5578FF"/>
<stop offset="0.442708" stop-color="#8828FF"/>
<stop offset="1" stop-color="#D25AFF"/>
</radialGradient>
</defs>
</svg>
