<svg width="24" height="24" viewBox="0 0 24 24" fill="none" xmlns="http://www.w3.org/2000/svg">
<path fill-rule="evenodd" clip-rule="evenodd" d="M13.9995 6.00195C13.9995 7.10652 13.1041 8.00195 11.9995 8.00195C10.8949 8.00195 9.99951 7.10652 9.99951 6.00195C9.99951 4.89738 10.8949 4.00195 11.9995 4.00195C13.1041 4.00195 13.9995 4.89738 13.9995 6.00195ZM15.9995 6.00195C15.9995 8.21109 14.2087 10.002 11.9995 10.002C9.79037 10.002 7.99951 8.21109 7.99951 6.00195C7.99951 3.79281 9.79037 2.00195 11.9995 2.00195C14.2087 2.00195 15.9995 3.79281 15.9995 6.00195ZM3.76465 11.0488H2.76465V12.0488V21.0033H4.76465V13.0488H19.2357V21.0033H21.2357V12.0488V11.0488H20.2357H3.76465Z" fill="#121212"/>
</svg>
